<svg xmlns="http://www.w3.org/2000/svg" viewBox="0 0 45.69 47.63"><defs><style>.cls-1{fill:#c24915;}</style></defs><g id="icons"><path class="cls-1" d="M38.1,26.1,23.51,13.21a1,1,0,0,0-1.33,0L7.59,26.1a.5.5,0,0,0-.17.38V41.64a.51.51,0,0,0,.5.5H18.18a.5.5,0,0,0,.5-.5V32a2,2,0,0,1,2-2H25a2,2,0,0,1,2,2v9.68a.5.5,0,0,0,.5.5H37.77a.51.51,0,0,0,.5-.5V26.48A.5.5,0,0,0,38.1,26.1Z"/><path class="cls-1" d="M42.12,21.1,25.49,6.48a4,4,0,0,0-5.29,0L3.57,21.1a1.9,1.9,0,0,0-.09,2.76h0a1.9,1.9,0,0,0,2.59.08L21.52,10.33a2,2,0,0,1,2.65,0L39.62,23.94a1.89,1.89,0,1,0,2.5-2.84Z"/></g></svg>