<svg xmlns="http://www.w3.org/2000/svg" xmlns:xlink="http://www.w3.org/1999/xlink" viewBox="0 0 566.87 545.53"><defs><style>.cls-1{isolation:isolate;}.cls-2{mix-blend-mode:multiply;}.cls-3{fill:#fff;opacity:0;}.cls-4{fill:#fcfcfc;opacity:0.03;}.cls-5{fill:#f9f9f9;opacity:0.06;}.cls-6{fill:#f6f6f6;opacity:0.1;}.cls-7{fill:#f3f3f3;opacity:0.13;}.cls-8{fill:#f0f0f0;opacity:0.16;}.cls-9{fill:#ededed;opacity:0.19;}.cls-10{fill:#eaeaea;opacity:0.23;}.cls-11{fill:#e6e6e6;opacity:0.26;}.cls-12{fill:#e3e3e3;opacity:0.29;}.cls-13{fill:#e0e0e0;opacity:0.32;}.cls-14{fill:#ddd;opacity:0.35;}.cls-15{fill:#dadada;opacity:0.39;}.cls-16{fill:#d7d7d7;opacity:0.42;}.cls-17{fill:#d4d4d4;opacity:0.45;}.cls-18{fill:#d1d1d1;opacity:0.48;}.cls-19{fill:#cecece;opacity:0.52;}.cls-20{fill:#cbcbcb;opacity:0.55;}.cls-21{fill:#c8c8c8;opacity:0.58;}.cls-22{fill:#c5c5c5;opacity:0.61;}.cls-23{fill:#c2c2c2;opacity:0.65;}.cls-24{fill:#bfbfbf;opacity:0.68;}.cls-25{fill:#bcbcbc;opacity:0.71;}.cls-26{fill:#b9b9b9;opacity:0.74;}.cls-27{fill:#b5b5b5;opacity:0.77;}.cls-28{fill:#b2b2b2;opacity:0.81;}.cls-29{fill:#afafaf;opacity:0.84;}.cls-30{fill:#acacac;opacity:0.87;}.cls-31{fill:#a9a9a9;opacity:0.9;}.cls-32{fill:#a6a6a6;opacity:0.94;}.cls-33{fill:#a3a3a3;opacity:0.97;}.cls-34{fill:#a0a0a0;}.cls-35{fill:url(#_ÂÁ_Ï_ÌÌ_È_ËÂÌÚ_10);}.cls-36{fill:url(#_ÂÁ_Ï_ÌÌ_È_ËÂÌÚ_9);}.cls-37{fill:#c24915;}</style><linearGradient id="_ÂÁ_Ï_ÌÌ_È_ËÂÌÚ_10" x1="283.43" y1="500.72" x2="283.43" y2="35.38" gradientTransform="translate(272.56 -121.91) rotate(45)" gradientUnits="userSpaceOnUse"><stop offset="0" stop-color="#d3dce5"/><stop offset="1" stop-color="#fff"/></linearGradient><linearGradient id="_ÂÁ_Ï_ÌÌ_È_ËÂÌÚ_9" x1="283.43" y1="454.68" x2="283.43" y2="81.42" gradientTransform="translate(272.56 -121.91) rotate(45)" gradientUnits="userSpaceOnUse"><stop offset="0" stop-color="#fff"/><stop offset="1" stop-color="#d3dce5"/></linearGradient></defs><g class="cls-1"><g id="Layer_1" data-name="Layer 1"><g class="cls-2"><circle class="cls-3" cx="283.43" cy="272.77" r="250.38"/><circle class="cls-4" cx="283.43" cy="272.91" r="249.18"/><circle class="cls-5" cx="283.43" cy="273.05" r="247.97"/><circle class="cls-6" cx="283.43" cy="273.19" r="246.76"/><circle class="cls-7" cx="283.43" cy="273.33" r="245.55"/><circle class="cls-8" cx="283.43" cy="273.47" r="244.34"/><circle class="cls-9" cx="283.43" cy="273.61" r="243.14"/><circle class="cls-10" cx="283.43" cy="273.75" r="241.93"/><circle class="cls-11" cx="283.43" cy="273.89" r="240.72"/><circle class="cls-12" cx="283.43" cy="274.03" r="239.51"/><circle class="cls-13" cx="283.43" cy="274.17" r="238.3"/><circle class="cls-14" cx="283.43" cy="274.32" r="237.1"/><circle class="cls-15" cx="283.43" cy="274.46" r="235.89"/><circle class="cls-16" cx="283.43" cy="274.6" r="234.68"/><circle class="cls-17" cx="283.43" cy="274.74" r="233.47"/><circle class="cls-18" cx="283.43" cy="274.88" r="232.26"/><circle class="cls-19" cx="283.43" cy="275.02" r="231.06"/><circle class="cls-20" cx="283.43" cy="275.16" r="229.85"/><circle class="cls-21" cx="283.43" cy="275.3" r="228.64"/><circle class="cls-22" cx="283.43" cy="275.44" r="227.43"/><circle class="cls-23" cx="283.43" cy="275.58" r="226.22" transform="translate(-111.85 281.13) rotate(-45)"/><circle class="cls-24" cx="283.43" cy="275.72" r="225.02" transform="translate(-111.95 281.18) rotate(-45)"/><circle class="cls-25" cx="283.43" cy="275.86" r="223.81" transform="translate(-112.05 281.22) rotate(-45)"/><circle class="cls-26" cx="283.43" cy="276" r="222.6" transform="translate(-112.15 281.26) rotate(-45)"/><circle class="cls-27" cx="283.43" cy="276.15" r="221.39" transform="translate(-112.25 281.3) rotate(-45)"/><circle class="cls-28" cx="283.43" cy="276.29" r="220.18" transform="translate(-112.35 281.34) rotate(-45)"/><circle class="cls-29" cx="283.43" cy="276.43" r="218.98" transform="translate(-112.45 281.38) rotate(-45)"/><circle class="cls-30" cx="283.43" cy="276.57" r="217.77" transform="translate(-112.55 281.42) rotate(-45)"/><circle class="cls-31" cx="283.43" cy="276.71" r="216.56" transform="translate(-112.65 281.46) rotate(-45)"/><circle class="cls-32" cx="283.43" cy="276.85" r="215.35" transform="translate(-112.75 281.51) rotate(-45)"/><circle class="cls-33" cx="283.43" cy="276.99" r="214.15" transform="translate(-112.85 281.55) rotate(-45)"/><circle class="cls-34" cx="283.43" cy="277.13" r="212.94" transform="translate(-112.95 281.59) rotate(-45)"/></g><circle class="cls-35" cx="283.43" cy="268.05" r="232.67" transform="translate(-106.52 278.93) rotate(-45)"/><circle class="cls-36" cx="283.43" cy="268.05" r="186.63" transform="translate(-106.52 278.93) rotate(-45)"/><path class="cls-37" d="M283.43,460.68c-106.21,0-192.63-86.41-192.63-192.63S177.22,75.42,283.43,75.42s192.64,86.41,192.64,192.63S389.65,460.68,283.43,460.68Zm0-373.26c-99.6,0-180.63,81-180.63,180.63s81,180.63,180.63,180.63,180.64-81,180.64-180.63S383,87.42,283.43,87.42Z"/><path class="cls-37" d="M320.85,174.31H246a56.38,56.38,0,0,0-56.31,56.32v74.85A56.36,56.36,0,0,0,246,361.79h74.84a56.38,56.38,0,0,0,56.32-56.31V230.63A56.39,56.39,0,0,0,320.85,174.31Zm38.68,131.17a38.72,38.72,0,0,1-38.68,38.68H246a38.72,38.72,0,0,1-38.68-38.68V230.63A38.72,38.72,0,0,1,246,192h74.84a38.72,38.72,0,0,1,38.68,38.68Z"/><circle class="cls-37" cx="333.07" cy="218.78" r="10.99"/><path class="cls-37" d="M284.2,221.88a46.18,46.18,0,1,0,46.17,46.18A46.23,46.23,0,0,0,284.2,221.88Zm0,75.75a29.58,29.58,0,1,1,29.57-29.57A29.6,29.6,0,0,1,284.2,297.63Z"/></g></g></svg>