<svg xmlns="http://www.w3.org/2000/svg" xmlns:xlink="http://www.w3.org/1999/xlink" viewBox="0 0 566.87 545.53"><defs><style>.cls-1{isolation:isolate;}.cls-2{mix-blend-mode:multiply;}.cls-3{fill:#fff;opacity:0;}.cls-4{fill:#fcfcfc;opacity:0.03;}.cls-5{fill:#f9f9f9;opacity:0.06;}.cls-6{fill:#f6f6f6;opacity:0.1;}.cls-7{fill:#f3f3f3;opacity:0.13;}.cls-8{fill:#f0f0f0;opacity:0.16;}.cls-9{fill:#ededed;opacity:0.19;}.cls-10{fill:#eaeaea;opacity:0.23;}.cls-11{fill:#e6e6e6;opacity:0.26;}.cls-12{fill:#e3e3e3;opacity:0.29;}.cls-13{fill:#e0e0e0;opacity:0.32;}.cls-14{fill:#ddd;opacity:0.35;}.cls-15{fill:#dadada;opacity:0.39;}.cls-16{fill:#d7d7d7;opacity:0.42;}.cls-17{fill:#d4d4d4;opacity:0.45;}.cls-18{fill:#d1d1d1;opacity:0.48;}.cls-19{fill:#cecece;opacity:0.52;}.cls-20{fill:#cbcbcb;opacity:0.55;}.cls-21{fill:#c8c8c8;opacity:0.58;}.cls-22{fill:#c5c5c5;opacity:0.61;}.cls-23{fill:#c2c2c2;opacity:0.65;}.cls-24{fill:#bfbfbf;opacity:0.68;}.cls-25{fill:#bcbcbc;opacity:0.71;}.cls-26{fill:#b9b9b9;opacity:0.74;}.cls-27{fill:#b5b5b5;opacity:0.77;}.cls-28{fill:#b2b2b2;opacity:0.81;}.cls-29{fill:#afafaf;opacity:0.84;}.cls-30{fill:#acacac;opacity:0.87;}.cls-31{fill:#a9a9a9;opacity:0.9;}.cls-32{fill:#a6a6a6;opacity:0.94;}.cls-33{fill:#a3a3a3;opacity:0.97;}.cls-34{fill:#a0a0a0;}.cls-35{fill:url(#_ÂÁ_Ï_ÌÌ_È_ËÂÌÚ_10);}.cls-36{fill:url(#_ÂÁ_Ï_ÌÌ_È_ËÂÌÚ_9);}.cls-37,.cls-38{fill:#c24915;}.cls-38{fill-rule:evenodd;}</style><linearGradient id="_ÂÁ_Ï_ÌÌ_È_ËÂÌÚ_10" x1="283.25" y1="513.9" x2="283.25" y2="48.56" gradientTransform="translate(281.82 -117.92) rotate(45)" gradientUnits="userSpaceOnUse"><stop offset="0" stop-color="#d3dce5"/><stop offset="1" stop-color="#fff"/></linearGradient><linearGradient id="_ÂÁ_Ï_ÌÌ_È_ËÂÌÚ_9" x1="283.25" y1="467.87" x2="283.25" y2="94.6" gradientTransform="translate(281.82 -117.92) rotate(45)" gradientUnits="userSpaceOnUse"><stop offset="0" stop-color="#fff"/><stop offset="1" stop-color="#d3dce5"/></linearGradient></defs><g class="cls-1"><g id="Layer_1" data-name="Layer 1"><g class="cls-2"><circle class="cls-3" cx="283.25" cy="285.95" r="250.38"/><circle class="cls-4" cx="283.25" cy="286.09" r="249.18"/><circle class="cls-5" cx="283.25" cy="286.23" r="247.97"/><circle class="cls-6" cx="283.25" cy="286.37" r="246.76"/><circle class="cls-7" cx="283.25" cy="286.51" r="245.55"/><circle class="cls-8" cx="283.25" cy="286.65" r="244.34"/><circle class="cls-9" cx="283.25" cy="286.79" r="243.14"/><circle class="cls-10" cx="283.25" cy="286.94" r="241.93"/><circle class="cls-11" cx="283.25" cy="287.08" r="240.72"/><circle class="cls-12" cx="283.25" cy="287.22" r="239.51"/><circle class="cls-13" cx="283.25" cy="287.36" r="238.3"/><circle class="cls-14" cx="283.25" cy="287.5" r="237.1"/><circle class="cls-15" cx="283.25" cy="287.64" r="235.89"/><circle class="cls-16" cx="283.25" cy="287.78" r="234.68"/><circle class="cls-17" cx="283.25" cy="287.92" r="233.47"/><circle class="cls-18" cx="283.25" cy="288.06" r="232.26"/><circle class="cls-19" cx="283.25" cy="288.2" r="231.06"/><circle class="cls-20" cx="283.25" cy="288.34" r="229.85"/><circle class="cls-21" cx="283.25" cy="288.48" r="228.64"/><circle class="cls-22" cx="283.25" cy="288.62" r="227.43"/><circle class="cls-23" cx="283.25" cy="288.77" r="226.22" transform="translate(-121.23 284.86) rotate(-45)"/><circle class="cls-24" cx="283.25" cy="288.91" r="225.02" transform="translate(-121.33 284.91) rotate(-45)"/><circle class="cls-25" cx="283.25" cy="289.05" r="223.81" transform="translate(-121.43 284.95) rotate(-45)"/><circle class="cls-26" cx="283.25" cy="289.19" r="222.6" transform="translate(-121.53 284.99) rotate(-45)"/><circle class="cls-27" cx="283.25" cy="289.33" r="221.39" transform="translate(-121.62 285.03) rotate(-45)"/><circle class="cls-28" cx="283.25" cy="289.47" r="220.18" transform="translate(-121.72 285.07) rotate(-45)"/><circle class="cls-29" cx="283.25" cy="289.61" r="218.98" transform="translate(-121.82 285.11) rotate(-45)"/><circle class="cls-30" cx="283.25" cy="289.75" r="217.77" transform="translate(-121.92 285.15) rotate(-45)"/><circle class="cls-31" cx="283.25" cy="289.89" r="216.56" transform="translate(-122.02 285.19) rotate(-45)"/><circle class="cls-32" cx="283.25" cy="290.03" r="215.35" transform="translate(-122.12 285.24) rotate(-45)"/><circle class="cls-33" cx="283.25" cy="290.17" r="214.15" transform="translate(-122.22 285.28) rotate(-45)"/><circle class="cls-34" cx="283.25" cy="290.31" r="212.94" transform="translate(-122.32 285.32) rotate(-45)"/></g><circle class="cls-35" cx="283.25" cy="281.23" r="232.67" transform="translate(-115.9 282.66) rotate(-45)"/><circle class="cls-36" cx="283.25" cy="281.23" r="186.63" transform="translate(-115.9 282.66) rotate(-45)"/><path class="cls-37" d="M283.25,473.87C177,473.87,90.62,387.45,90.62,281.23S177,88.6,283.25,88.6,475.88,175,475.88,281.23,389.47,473.87,283.25,473.87Zm0-373.27c-99.6,0-180.63,81-180.63,180.63s81,180.64,180.63,180.64,180.63-81,180.63-180.64S382.85,100.6,283.25,100.6Z"/><path class="cls-38" d="M317.08,192.69h-30.5V313.75a25.65,25.65,0,0,1-46.06,15.43h0a25.65,25.65,0,0,1,28.19-39.94v-31a57.37,57.37,0,0,0-8.88-.51A56.06,56.06,0,0,0,207,328.88c.45,1.64,1,3.25,1.59,4.82.36.95.74,1.88,1.15,2.8a57,57,0,0,0,3.78,7.07c.47.75,1,1.49,1.47,2.21s1,1.45,1.57,2.15l.82,1c.83,1,1.7,2,2.6,3,0,0,0,0,0,0l.92,1a56.06,56.06,0,0,0,96.13-39.18V247.63c7,9.48,26.51,17.79,42.26,17.79V235.1C334.07,235.1,317.08,210.68,317.08,192.69Z"/></g></g></svg>